<svg xmlns="http://www.w3.org/2000/svg" width="1200" height="630" viewBox="0 0 1200 630">
  <defs>
    <linearGradient id="g" x1="0" y1="0" x2="1" y2="1"><stop offset="0" stop-color="#a5a8ff"/><stop offset="1" stop-color="#5e6ad2"/></linearGradient>
    <radialGradient id="glow" cx="0.82" cy="0.45" r="0.6"><stop offset="0" stop-color="#7170ff" stop-opacity="0.35"/><stop offset="1" stop-color="#7170ff" stop-opacity="0"/></radialGradient>
    <mask id="m"><rect width="32" height="32" fill="#fff"/><g stroke="#000" stroke-width="2.4" stroke-linecap="round"><path d="M9.5 14v4"/><path d="M13.25 11v10"/><path d="M17 8.5v15"/><path d="M20.75 12v8"/><path d="M24.5 14.5v3"/></g></mask>
  </defs>
  <rect width="1200" height="630" fill="#08090a"/>
  <rect width="1200" height="630" fill="url(#glow)"/>
  <g transform="translate(80 80)">
    <svg width="64" height="64" viewBox="0 0 32 32"><circle cx="16" cy="16" r="14" fill="url(#g)" mask="url(#m)"/></svg>
    <text x="84" y="46" font-family="Inter, Helvetica Neue, Helvetica, Arial, sans-serif" font-size="40" font-weight="600" fill="#f7f8f8" letter-spacing="-1">Albena</text>
  </g>
  <g font-family="Inter, Helvetica Neue, Helvetica, Arial, sans-serif" fill="#f7f8f8" font-weight="600" letter-spacing="-3">
    <text x="80" y="330" font-size="96">Your AI.</text>
    <text x="80" y="432" font-size="96">Your systems.</text>
  </g>
  <text x="80" y="508" font-family="Inter, Helvetica Neue, Helvetica, Arial, sans-serif" font-size="34" fill="#d0d6e0">Private, local-first AI assistant for your home.</text>
  <text x="80" y="560" font-family="Inter, Helvetica Neue, Helvetica, Arial, sans-serif" font-size="26" fill="#8a8f98">Runs on a Mac or NVIDIA box you own. You approve every change.</text>
  <g transform="translate(800 150)" stroke="#a5a8ff" stroke-opacity="0.55" stroke-width="3" fill="none">
    <circle cx="150" cy="150" r="140"/><circle cx="150" cy="150" r="100" stroke-opacity="0.35"/><circle cx="150" cy="150" r="60" stroke-opacity="0.25"/>
  </g>
  <g transform="translate(870 220) scale(5)"><circle cx="16" cy="16" r="14" fill="url(#g)" mask="url(#m)"/></g>
</svg>
